<svg xmlns="http://www.w3.org/2000/svg" viewBox="0 0 157 544.3"><defs><style>.cls-1{fill:#1b5e3b;}.cls-2,.cls-3{fill:#fff;}.cls-2{opacity:0.05;}.cls-3{opacity:0.03;}</style></defs><title>Ресурс 2</title><g id="Слой_2" data-name="Слой 2"><g id="Слой_1-2" data-name="Слой 1"><path class="cls-1" d="M145,544.3H12a12,12,0,0,1-12-12V213.1C0,190.9,12.07,170.21,31.8,160a44.52,44.52,0,0,0,16.87-14.77A40.68,40.68,0,0,0,55.43,123L56.93,5.43A5.23,5.23,0,0,1,62.16.27l.19,0a58,58,0,0,0,32.28,0h0c3.69-1.08,6.7,1.19,6.68,5l-.6,117a44.76,44.76,0,0,0,4.92,21c3.74,7.14,9.5,13.78,20.12,19.51A60.18,60.18,0,0,1,157,215.88V532.3A12,12,0,0,1,145,544.3Z"/><path class="cls-1" d="M101.12,41.3l.19-36c0-3.84-3-6.11-6.68-5h0a58,58,0,0,1-32.28,0l-.19,0a5.23,5.23,0,0,0-5.23,5.16L56.48,41.3Z"/><path class="cls-2" d="M98,522H30.19c-3.91,0-7.17-5.35-7.56-12.37L11.17,303.1l0-.76c-.25-9.71,6.16-10.11,6.77-.45,0,0,3.34,64.71,4.86,81.33,1.31,14.3,6.13,59.67,11.39,81.06,4.61,18.77,11.54,34.52,22.68,36.53l41.56,7.5c4.72.85,4.47,13.55-.27,13.68Z"/><path class="cls-3" d="M147.39,224s-.64-24.84-2.68-32a11,11,0,0,0-2.27-3.88c-8-7-34.88-8.58-34.88-8.58h-.14c-1.75-.11-1.78,3.2,0,3.5,0,0,11.65,1.6,14.65,2.35,2.58.65,10.76,3.05,14.64,5.73,3.4,2.35,5.88,7.63,6.69,11.65,1,5.07,1.57,21.45,1.57,21.45.18,2.44,2.46,2.29,2.46-.17Z"/></g></g></svg>